<svg width="31" height="33" viewBox="0 0 31 33" fill="none" xmlns="http://www.w3.org/2000/svg">
<path d="M5 31.5C6.65685 31.5 8 30.1569 8 28.5C8 26.8431 6.65685 25.5 5 25.5C3.34315 25.5 2 26.8431 2 28.5C2 30.1569 3.34315 31.5 5 31.5Z" stroke="#1E1E1E" stroke-width="2" stroke-miterlimit="10" stroke-linecap="square"/>
<path d="M27 31.5C28.6569 31.5 30 30.1569 30 28.5C30 26.8431 28.6569 25.5 27 25.5C25.3431 25.5 24 26.8431 24 28.5C24 30.1569 25.3431 31.5 27 31.5Z" stroke="#1E1E1E" stroke-width="2" stroke-miterlimit="10" stroke-linecap="square"/>
<path d="M1 1.5L4 5.5V17.5L2 21.5H31" stroke="#1E1E1E" stroke-width="2" stroke-miterlimit="10"/>
<path d="M4 5.5H29L24 17.5H4" stroke="#1E1E1E" stroke-width="2" stroke-miterlimit="10" stroke-linecap="square"/>
</svg>
